<?xml version="1.0" encoding="UTF-8" standalone="no"?>
<svg
   viewBox="0 0 74.4 74.4"
   style="enable-background:new 0 0 74.4 74.4"
   xml:space="preserve"
   version="1.1"
   id="svg138"
   sodipodi:docname="monologoteamup.svg"
   inkscape:version="1.2.2 (b0a8486, 2022-12-01)"
   xmlns:inkscape="http://www.inkscape.org/namespaces/inkscape"
   xmlns:sodipodi="http://sodipodi.sourceforge.net/DTD/sodipodi-0.dtd"
   xmlns="http://www.w3.org/2000/svg"
   xmlns:svg="http://www.w3.org/2000/svg"><defs
   id="defs142" /><sodipodi:namedview
   id="namedview140"
   pagecolor="#ffffff"
   bordercolor="#666666"
   borderopacity="1.0"
   inkscape:showpageshadow="2"
   inkscape:pageopacity="0.0"
   inkscape:pagecheckerboard="0"
   inkscape:deskcolor="#d1d1d1"
   showgrid="false"
   inkscape:zoom="1.7914233"
   inkscape:cx="158.25405"
   inkscape:cy="153.78833"
   inkscape:window-width="1463"
   inkscape:window-height="847"
   inkscape:window-x="0"
   inkscape:window-y="25"
   inkscape:window-maximized="0"
   inkscape:current-layer="svg138" />
    <path
   d="m 43.357705,60.608108 c -1.106879,-1.77628 -2.582718,-3.272095 -4.611997,-4.674421 -3.228397,-2.056746 -7.010234,-3.459072 -10.976551,-3.833026 4.519757,-1.495815 7.748154,-5.702795 7.748154,-10.844658 -0.36896,-7.75954 -6.180075,-11.312101 -11.437751,-11.312101 -5.257676,0 -11.161032,3.552561 -11.437751,11.312101 0,5.048375 3.412877,9.442331 7.932634,10.844658 -3.874077,0.467442 -7.563675,1.77628 -10.6998323,3.833026 -4.0585568,2.711164 -6.2723151,6.54419 -6.2723151,10.844658 v 3.55256 c 0,0.934885 0.3689597,1.776281 0.8301593,2.4307 H 43.265465 Z M 20.389963,41.256003 c 0.09224,-1.963257 1.844798,-3.459072 3.781837,-3.459072 h 0.09224 c 1.937038,0.09349 3.505117,1.589303 3.689597,3.459072 -0.18448,2.524187 -2.029278,3.646049 -3.781837,3.646049 -1.660319,0 -3.689597,-0.934885 -3.781837,-3.646049 z"
   style="fill:none;stroke-width:0.928621"
   id="path132" />
    <path
   d="m 24.1718,50.9788 c 5.349916,0 9.685192,-4.300468 9.685192,-9.722797 -0.461199,-12.901404 -19.001425,-12.901404 -19.554864,0 0,5.32884 4.427516,9.722797 9.869672,9.722797 z m 26.472859,0.09349 c 5.349916,0 9.685193,-4.300468 9.685193,-9.722797 -0.4612,-12.901404 -19.001426,-12.901404 -19.554865,0 0,5.328841 4.427516,9.722797 9.869672,9.722797 z m -5.442156,-9.722797 c 0.09224,-2.898141 2.674958,-5.235352 5.626636,-5.141864 2.859438,0.09349 5.073196,2.337211 5.257676,5.141864 -0.36896,7.105121 -10.607592,7.105121 -10.884312,0 z M 64.296168,57.52299 C 60.698811,55.185779 56.548014,53.876941 52.304978,53.783453 H 48.98434 c -4.243036,0.186977 -8.393833,1.402326 -11.99119,3.739537 -3.689597,2.430699 -5.534396,5.796283 -5.534396,9.442332 v 3.55256 c 0,1.308838 0.922399,2.243723 2.213758,2.337211 h 33.667574 c 1.291359,-0.09349 2.213758,-1.121861 2.213758,-2.337211 v -3.55256 c 0.27672,-3.646049 -1.660318,-7.011633 -5.257676,-9.442332 z m 1.01464,11.031635 H 36.25523 v -1.21535 c 0.27672,-3.926514 3.689598,-6.357213 7.102475,-7.666051 2.398238,-0.934884 4.980956,-1.402327 7.471434,-1.402327 2.490478,0 5.073196,0.467443 7.471434,1.402327 3.320638,1.308838 6.917995,3.739537 7.102475,7.666051 z"
   id="path134"
   style="stroke-width:0.928621" />
    <path
   d="m 34.502672,56.775083 c -3.597357,-2.337211 -4.611997,-2.898142 -8.855033,-2.99163 H 22.327001 C 18.083965,53.97043 13.933168,55.185779 10.33581,57.52299 6.6462132,59.953689 4.8014147,63.319273 4.8014147,66.965322 v 3.55256 c 0,1.308838 0.9223992,2.243723 2.2137582,2.337211 H 28.968276 c 0.27672,-10.844658 0.27672,-10.844658 5.534396,-16.08001 z"
   id="path136"
   style="stroke-width:0.928621" />
<path
   id="rect417"
   style="fill:#000000;fill-opacity:1;stroke:#000000;stroke-width:0.2;stroke-dasharray:none;stroke-opacity:1"
   d="M 7.1484376,3.2296242 C 7.0375208,3.2442667 6.9418161,3.3236791 6.9101563,3.4386086 L 5.3242188,9.1964211 c -0.042213,0.1532394 0.045924,0.311502 0.1992187,0.3535156 L 46.554687,20.79603 40.763673,15.786265 49.160157,14.782358 c -0.03655,-0.04605 -0.0832,-0.08475 -0.144531,-0.101562 L 7.2636719,3.2374367 c -0.038324,-0.010503 -0.078262,-0.012693 -0.1152343,-0.00781 z" /><path
   sodipodi:type="star"
   style="fill:#000000;fill-opacity:1;stroke:none;stroke-width:2.42;stroke-dasharray:none;stroke-opacity:1"
   id="path1183-7"
   inkscape:flatsided="false"
   sodipodi:sides="5"
   sodipodi:cx="48.995125"
   sodipodi:cy="5.123673"
   sodipodi:r1="13.678547"
   sodipodi:r2="6.839273"
   sodipodi:arg1="0.835081"
   sodipodi:arg2="1.4633995"
   inkscape:rounded="0"
   inkscape:randomized="0"
   d="m 58.175039,15.264276 -8.446809,-3.340735 -7.540642,5.064368 0.567019,-9.0657368 -7.146685,-5.6066011 8.797246,-2.262199 3.123747,-8.5294372 4.869978,7.66762054 9.077268,0.33511901 -5.787435,7.00104915 z"
   transform="matrix(0.95890954,0.1011304,-0.08060511,0.85530114,10.232394,11.138001)"
   inkscape:transform-center-x="-0.28934321"
   inkscape:transform-center-y="-3.5280184" /></svg>
